<?xml version="1.0" encoding="utf-8"?>
<!-- Generator: Adobe Illustrator 18.1.1, SVG Export Plug-In . SVG Version: 6.00 Build 0)  -->
<svg version="1.1" id="Layer_1" xmlns="http://www.w3.org/2000/svg" xmlns:xlink="http://www.w3.org/1999/xlink" x="0px" y="0px"
	 viewBox="-237 239 24 24" enable-background="new -237 239 24 24" xml:space="preserve">
<path fill="none" d="M-237,239h24v24h-24V239z"/>
<path fill="#4F4F4F" d="M-220.5,242c-1.7,0-3.4,0.8-4.5,2.1c-1.1-1.3-2.8-2.1-4.5-2.1c-3.1,0-5.5,2.4-5.5,5.5
	c0,3.8,3.4,6.9,8.6,11.5l1.4,1.3l1.4-1.3c5.2-4.7,8.6-7.8,8.6-11.5C-215,244.4-217.4,242-220.5,242z M-224.9,257.5l-0.1,0.1
	l-0.1-0.1c-4.8-4.3-7.9-7.2-7.9-10c0-2,1.5-3.5,3.5-3.5c1.5,0,3,1,3.6,2.4h1.9c0.5-1.4,2-2.4,3.6-2.4c2,0,3.5,1.5,3.5,3.5
	C-217,250.4-220.1,253.2-224.9,257.5z"/>
</svg>
