<?xml version="1.0" encoding="utf-8"?>
<!-- Generator: Adobe Illustrator 18.1.1, SVG Export Plug-In . SVG Version: 6.00 Build 0)  -->
<svg version="1.1" id="Layer_1" xmlns="http://www.w3.org/2000/svg" xmlns:xlink="http://www.w3.org/1999/xlink" x="0px" y="0px"
	 viewBox="46.7 116.2 416.7 291.7" enable-background="new 46.7 116.2 416.7 291.7" xml:space="preserve">
<path d="M348.7,262c29.2,0,52.1-22.9,52.1-52.1s-22.9-52.1-52.1-52.1c-29.2,0-52.1,22.9-52.1,52.1S319.6,262,348.7,262z
	 M192.5,241.2c35.4,0,62.5-27.1,62.5-62.5s-27.1-62.5-62.5-62.5S130,143.2,130,178.7S157.1,241.2,192.5,241.2z M348.7,303.7
	c-37.5,0-114.6,18.7-114.6,58.3v45.8h229.2V362C463.3,322.4,386.2,303.7,348.7,303.7z M192.5,282.8c-47.9,0-145.8,25-145.8,72.9
	v52.1h145.8V362c0-18.7,6.3-47.9,50-72.9C223.7,284.9,207.1,282.8,192.5,282.8z"/>
</svg>
