<?xml version="1.0" encoding="utf-8"?>
<!-- Generator: Adobe Illustrator 18.1.1, SVG Export Plug-In . SVG Version: 6.00 Build 0)  -->
<svg version="1.1" id="Layer_2" xmlns="http://www.w3.org/2000/svg" xmlns:xlink="http://www.w3.org/1999/xlink" x="0px" y="0px"
	 viewBox="0 91.6 500 317" enable-background="new 0 91.6 500 317" xml:space="preserve">
<g>
	<path fill="#F05860" d="M208.7,132.8c0,0,30.4,12.7,42.6,30.4V96.6L208.7,132.8z"/>
	<path fill="#228743" d="M220.9,148.7c-23,27.5-36.9,62.8-36.9,101.2c0,39.3,14.3,75.2,38.1,102.8c5.6-3.2,12.1-7.4,17.5-12.2
		c-21.2-24.1-34.3-55.8-34.3-90.6c0-33.8,12.4-64.9,32.8-88.8C233.2,156.4,226.9,152.1,220.9,148.7z"/>
	<path fill="#5BBC79" d="M280,149.7c-6,3.7-12.2,8-16.9,12.9c19.8,23.8,31.7,54.2,31.7,87.4c0,34.1-12.6,65.2-33.2,89.2
		c5.1,4.8,11.4,9.2,17.2,12.6C302,324.1,316,288.6,316,249.8C315.9,212,302.4,177,280,149.7z"/>
	<path fill="#5BBC79" d="M214.2,374.7c-17.2,7.9-36.4,12.4-56.6,12.4c-75.5,0-137-61.5-137-137s61.5-137,137-137
		c17.7,0,34.6,3.4,50.1,9.5l18-15.3c-20.6-10-43.8-15.4-68.2-15.4C70.1,91.9-1,162.9-1,250.3s71,158.4,158.4,158.4
		c26.9,0,52.1-6.8,74.2-18.7L214.2,374.7z"/>
	<path fill="#228743" d="M342.4,91.6c-23.8,0-46.3,5.3-66.5,14.6l18.2,15.4c15-5.6,31.4-8.9,48.3-8.9c75.5,0,137,61.5,137,137
		s-61.5,137-137,137c-19.5,0-38-4.2-54.9-11.6l-17.9,15.1c21.7,11.3,46.5,17.7,72.7,17.7c87.2,0,158.4-71,158.4-158.4
		S429.8,91.6,342.4,91.6z"/>
	<path fill="#BB3239" d="M294,132.8c0,0-30.4,12.7-42.6,30.4V96.6L294,132.8z"/>
	<path fill="#BB3239" d="M294,365.5c0,0-30.4-12.7-42.6-30.4v66.6L294,365.5z"/>
	<path fill="#F05860" d="M208.7,365.5c0,0,30.4-12.7,42.6-30.4v66.6L208.7,365.5z"/>
</g>
</svg>
