<?xml version="1.0" encoding="utf-8"?>
<!-- Generator: Adobe Illustrator 18.1.1, SVG Export Plug-In . SVG Version: 6.00 Build 0)  -->
<svg version="1.1" id="Layer_1" xmlns="http://www.w3.org/2000/svg" xmlns:xlink="http://www.w3.org/1999/xlink" x="0px" y="0px"
	 viewBox="-237 239 24 24" enable-background="new -237 239 24 24" xml:space="preserve">
<path fill="none" d="M-237,239h24v24h-24V239z"/>
<path fill="#2F2F2F" d="M-219,247h-1v-2c0-2.8-2.2-5-5-5s-5,2.2-5,5v2h-1c-1.1,0-2,0.9-2,2v10c0,1.1,0.9,2,2,2h12c1.1,0,2-0.9,2-2
	v-10C-217,247.9-217.9,247-219,247z M-225,241.9c1.7,0,3.1,1.4,3.1,3.1v2h-6.1v-2h-0.1C-228.1,243.3-226.7,241.9-225,241.9z
	 M-219,259h-12v-10h12V259z M-225,256c1.1,0,2-0.9,2-2s-0.9-2-2-2s-2,0.9-2,2S-226.1,256-225,256z"/>
</svg>
