<?xml version="1.0" encoding="utf-8"?>
<!-- Generator: Adobe Illustrator 18.1.1, SVG Export Plug-In . SVG Version: 6.00 Build 0)  -->
<svg version="1.1" id="Layer_1" xmlns="http://www.w3.org/2000/svg" xmlns:xlink="http://www.w3.org/1999/xlink" x="0px" y="0px"
	 viewBox="-237 239 24 24" enable-background="new -237 239 24 24" xml:space="preserve">
<path fill="none" d="M-237,239h24v24h-24V239z"/>
<path fill="#2F2F2F" d="M-225,243.5c-5,0-9.3,3.1-11,7.5c1.7,4.4,6,7.5,11,7.5s9.3-3.1,11-7.5C-215.7,246.6-220,243.5-225,243.5z
	 M-225,256c-2.8,0-5-2.2-5-5s2.2-5,5-5s5,2.2,5,5S-222.2,256-225,256z M-225,248c-1.7,0-3,1.3-3,3s1.3,3,3,3s3-1.3,3-3
	S-223.3,248-225,248z"/>
</svg>
