<?xml version="1.0" encoding="utf-8"?>
<!-- Generator: Adobe Illustrator 18.1.1, SVG Export Plug-In . SVG Version: 6.00 Build 0)  -->
<svg version="1.1" id="Layer_1" xmlns="http://www.w3.org/2000/svg" xmlns:xlink="http://www.w3.org/1999/xlink" x="0px" y="0px"
	 viewBox="-237 239 24 24" enable-background="new -237 239 24 24" xml:space="preserve">
<path fill="#2F2F2F" d="M-225,244.9c1.2,0,2.1,0.9,2.1,2.1s-0.9,2.1-2.1,2.1s-2.1-0.9-2.1-2.1S-226.2,244.9-225,244.9 M-225,253.9
	c3,0,6.1,1.5,6.1,2.1v1.1h-12.2V256C-231.1,255.4-228,253.9-225,253.9 M-225,243c-2.2,0-4,1.8-4,4s1.8,4,4,4s4-1.8,4-4
	S-222.8,243-225,243z M-225,252c-2.7,0-8,1.3-8,4v3h16v-3C-217,253.3-222.3,252-225,252z"/>
<path fill="none" d="M-237,239h24v24h-24V239z"/>
</svg>
