<?xml version="1.0" encoding="utf-8"?>
<!-- Generator: Adobe Illustrator 18.1.1, SVG Export Plug-In . SVG Version: 6.00 Build 0)  -->
<svg version="1.1" id="Layer_2" xmlns="http://www.w3.org/2000/svg" xmlns:xlink="http://www.w3.org/1999/xlink" x="0px" y="0px"
	 viewBox="-943 525 32 32" enable-background="new -943 525 32 32" xml:space="preserve">
<g>
	<path fill="#3B5998" d="M-911,555c0,1.1-0.9,2-2,2h-28c-1.1,0-2-0.9-2-2v-28c0-1.1,0.9-2,2-2h28c1.1,0,2,0.9,2,2V555z"/>
	<path id="f" fill="#FFFFFF" d="M-921,557v-12h4l1-5h-5v-2c0-2,1-3,3-3h2v-5c-1,0-2.2,0-4,0c-3.7,0-6,2.9-6,7v3h-4v5h4v12H-921z"/>
</g>
</svg>
