<?xml version="1.0" encoding="utf-8"?>
<!-- Generator: Adobe Illustrator 18.1.1, SVG Export Plug-In . SVG Version: 6.00 Build 0)  -->
<svg version="1.1" id="Layer_1" xmlns="http://www.w3.org/2000/svg" xmlns:xlink="http://www.w3.org/1999/xlink" x="0px" y="0px"
	 viewBox="0 0 952.3 1920" enable-background="new 0 0 952.3 1920" xml:space="preserve">
<g>
	<path fill="none" stroke="#DEDDDD" stroke-width="2" stroke-miterlimit="10" d="M887.8,1693H64.5c-0.5,0-1-0.5-1-1V221.9
		c0-0.6,0.4-1,1-1h823.3c0.6,0,1,0.4,1,1V1692C888.8,1692.5,888.3,1693,887.8,1693z"/>
	<g>
		<path fill="#DEDDDD" d="M839.9,1898.1H112.4c-48.1,0-88.7-42-88.7-91.6V107.9c0-48.8,39.8-88.5,88.7-88.5h727.5
			c48.9,0,88.7,39.7,88.7,88.5v1698.6C928.6,1856.2,888,1898.1,839.9,1898.1z M112.4,23.2c-22.5,0-43.8,8.8-59.9,24.9
			c-16.1,16-24.9,37.2-24.9,59.8v1698.6c0,22.5,8.8,43.7,24.9,59.7c18.1,18.1,39.4,28,59.9,28h727.5c20.5,0,41.7-10,59.9-28
			c16.1-16,24.9-37.2,24.9-59.7V107.9c0-22.5-8.8-43.7-24.9-59.8c-16.1-16.1-37.3-24.9-59.9-24.9H112.4z"/>
	</g>
	<path fill="#DEDDDD" d="M476.2,1727.7c-36.7,0-66.5,29.8-66.5,66.5s29.8,66.5,66.5,66.5s66.5-29.8,66.5-66.5
		S512.8,1727.7,476.2,1727.7z M476.2,1858.3c-35.4,0-64.2-28.8-64.2-64.2s28.8-64.2,64.2-64.2s64.2,28.8,64.2,64.2
		S511.5,1858.3,476.2,1858.3z"/>
	<g>
		<path fill="#DEDDDD" d="M530.9,131.2H421.5c-5.6,0-10.2-4.6-10.2-10.2s4.6-10.2,10.2-10.2h109.4c5.6,0,10.2,4.6,10.2,10.2
			S536.5,131.2,530.9,131.2z M421.5,114.1c-3.8,0-6.9,3.1-6.9,6.9s3.1,6.9,6.9,6.9h109.4c3.8,0,6.9-3.1,6.9-6.9s-3.1-6.9-6.9-6.9
			H421.5z"/>
	</g>
	<g>
		<path fill="#DEDDDD" d="M350.1,136.5c-8.5,0-15.4-6.9-15.4-15.4s6.9-15.4,15.4-15.4s15.4,6.9,15.4,15.4S358.7,136.5,350.1,136.5z
			 M350.1,109.5c-6.4,0-11.6,5.2-11.6,11.6s5.2,11.6,11.6,11.6s11.6-5.2,11.6-11.6S356.5,109.5,350.1,109.5z"/>
	</g>
	<g>
		<path fill="#DEDDDD" d="M476.2,81c-6.9,0-12.5-5.6-12.5-12.5s5.6-12.5,12.5-12.5c6.9,0,12.5,5.6,12.5,12.5S483.1,81,476.2,81z
			 M476.2,59.4c-5,0-9,4-9,9s4,9,9,9c5,0,9-4,9-9S481.1,59.4,476.2,59.4z"/>
	</g>
	<path fill="#DEDDDD" d="M947.5,368.3h-1V106.4C946.5,47.7,898.7,0,839.9,0H112.4C53.6,0,5.8,47.7,5.8,106.4v119.9h-1
		c-2.7,0-4.8,2.2-4.8,4.8v63c0,2.7,2.2,5.3,4.8,5.3h1v69.1h-1c-2.7,0-4.8,2.2-4.8,4.8v112.7c0,2.7,2.2,5.3,4.8,5.3h1V518h-1
		c-2.7,0-4.8,2.2-4.8,4.8v108.9c0,2.7,2.2,5.3,4.8,5.3h1v1174.2c0,58.6,47.8,106.3,106.6,106.3h727.5c58.8,0,106.6-47.7,106.6-106.3
		V487.4h1c2.7,0,4.8-2.2,4.8-4.8V373.7C952.3,371,950.1,368.3,947.5,368.3z M941.2,1811.2c0,26.8-10.6,52.1-29.7,71.3
		c-19.1,19.1-44.5,29.6-71.5,29.6H112.4c-27,0-52.3-10.5-71.5-29.6c-19.2-19.1-29.7-44.4-29.7-71.3V106.4
		c0-26.9,10.6-52.2,29.7-71.4C60.1,15.9,85.5,5.4,112.4,5.4h727.5c26.9,0,52.3,10.6,71.5,29.7c19.2,19.1,29.7,44.5,29.7,71.4V1811.2
		z"/>
</g>
</svg>
