<?xml version="1.0" encoding="utf-8"?>
<!-- Generator: Adobe Illustrator 18.1.1, SVG Export Plug-In . SVG Version: 6.00 Build 0)  -->
<svg version="1.1" id="Layer_1" xmlns="http://www.w3.org/2000/svg" xmlns:xlink="http://www.w3.org/1999/xlink" x="0px" y="0px"
	 viewBox="0 0 1000 1000" enable-background="new 0 0 1000 1000" xml:space="preserve">
<g>
	<path fill="#DCDBDB" d="M828.9,804.1H206.3C91.3,801.9,1.7,712,1.7,599.5c0-112.8,91.8-204.6,204.6-204.6c15.9,0,31.6,1.8,47,5.5
		c41.8-122.2,156.2-205.2,287.9-205.2c148,0,272.7,105.1,299.3,248.2c89,11.4,157.9,87.6,157.9,179.6
		C998.3,721.1,920.7,804.1,828.9,804.1z"/>
</g>
<path fill="#ABABAB" d="M844.9,683.9c-0.9-1.2-23.8-30.1-74.8-58.9c-84.2-47.5-179.1-57.5-243.9-57.5
	c-117.4,0-197.5,31.2-243.9,57.5c-51,28.8-73.9,57.7-74.8,58.9c-3.9,5-3,12.2,2,16.2c2.1,1.6,4.6,2.4,7.1,2.4c3.4,0,6.8-1.5,9.1-4.4
	c0.2-0.3,21.7-27.2,69.2-53.7c43.9-24.5,119.7-53.8,231.4-53.8c111.7,0,187.4,29.3,231.4,53.8c47.3,26.5,68.8,53.3,69.2,53.7
	c2.3,2.9,5.7,4.4,9.1,4.4c2.5,0,5-0.8,7.1-2.4C847.9,696.2,848.8,688.9,844.9,683.9z"/>
</svg>
