<?xml version="1.0" encoding="utf-8"?>
<!-- Generator: Adobe Illustrator 18.1.1, SVG Export Plug-In . SVG Version: 6.00 Build 0)  -->
<svg version="1.1" id="Layer_1" xmlns="http://www.w3.org/2000/svg" xmlns:xlink="http://www.w3.org/1999/xlink" x="0px" y="0px"
	 viewBox="0 0 500 500" enable-background="new 0 0 500 500" xml:space="preserve">
<g id="Layer_1_3_">
	<g>
		<circle fill="#3B9255" cx="249.9" cy="249.7" r="250.7"/>
		<circle fill="#5CBD76" cx="249.9" cy="249.7" r="221.6"/>
		<g>
			<path fill="#F4F4F4" d="M218.7,387.2c-6.6,0-12.9-2.7-17.6-7.5l-75.3-78.8c-9.3-9.7-8.9-25,0.8-34.3c9.7-9.3,25-8.9,34.3,0.8
				l52.4,54.8l108.1-198.7c6.4-11.8,21.1-16.1,32.9-9.7c11.8,6.4,16.1,21.1,9.7,32.9L240,374.5c-3.7,6.8-10.4,11.4-18.1,12.4
				C220.9,387.1,219.8,387.2,218.7,387.2z"/>
		</g>
	</g>
</g>
</svg>
